<svg width="67" height="67" viewBox="0 0 67 67" fill="none" xmlns="http://www.w3.org/2000/svg">
<path d="M33.5005 67C33.3319 67 33.1635 66.9704 33.0028 66.9111C25.2738 64.0637 18.6981 58.9871 13.9867 52.2304C9.27541 45.4738 6.78516 37.5485 6.78516 29.3116V6.76072C6.78516 6.18154 7.1322 5.65875 7.66597 5.43407C16.2297 1.82837 24.9216 0 33.5005 0C42.0794 0 50.7713 1.82837 59.335 5.43407C59.8688 5.65875 60.2158 6.18154 60.2158 6.76072V29.3116C60.2158 37.5485 57.7256 45.4739 53.0143 52.2306C48.3029 58.9872 41.7272 64.0638 33.9982 66.9113C33.8375 66.9704 33.669 67 33.5005 67ZM9.66406 7.72332V29.3117C9.66406 44.6461 19.2201 58.5269 33.5005 64.0226C47.7809 58.5269 57.3369 44.6461 57.3369 29.3117V7.72332C41.5145 1.30244 25.4865 1.30244 9.66406 7.72332Z" fill="black"/>
<path d="M33.4991 58.3361C33.2841 58.3361 33.0691 58.2879 32.8705 58.1916C27.4806 55.576 22.931 51.4932 19.7137 46.3847C16.4766 41.2448 14.7656 35.3411 14.7656 29.312V12.286C14.7656 11.6642 15.165 11.1126 15.7556 10.9185C21.6851 8.96992 27.6549 7.98193 33.4991 7.98193C39.3432 7.98193 45.313 8.96992 51.2425 10.9184C51.8332 11.1125 52.2325 11.6641 52.2325 12.2859V29.312C52.2325 35.3411 50.5215 41.2448 47.2844 46.3847C44.0671 51.4932 39.5175 55.5759 34.1276 58.1916C33.9291 58.2879 33.7141 58.3361 33.4991 58.3361ZM17.6445 13.3376V29.3121C17.6445 40.1894 23.8443 50.3072 33.4991 55.2871C43.1539 50.3072 49.3536 40.1894 49.3536 29.3121V13.3376C44.0421 11.6938 38.7133 10.8608 33.4991 10.8608C28.2848 10.8608 22.956 11.6938 17.6445 13.3376Z" fill="#8BC34A"/>
<path d="M30.2092 40.1748C29.8275 40.1748 29.4613 40.0231 29.1914 39.7532L24.488 35.0498C23.9259 34.4877 23.9259 33.5762 24.488 33.0141C25.0503 32.452 25.9615 32.452 26.5238 33.0141L30.2093 36.6996L40.4794 26.4293C41.0417 25.8673 41.9529 25.8673 42.5152 26.4293C43.0774 26.9915 43.0774 27.9029 42.5152 28.4651L31.2272 39.7533C30.9572 40.0231 30.5909 40.1748 30.2092 40.1748Z" fill="#8BC34A"/>
</svg>
