<svg width="12" height="12" viewBox="0 0 12 12" fill="none" xmlns="http://www.w3.org/2000/svg">
<path d="M7.43366 0.666992H11.267V1.66699H9.08366L9.33366 1.90033C10.0003 2.52255 10.5003 3.18921 10.8337 3.90033C11.167 4.61144 11.3337 5.29477 11.3337 5.95033C11.3337 7.1281 10.9892 8.18921 10.3003 9.13366C9.61144 10.0781 8.70033 10.7281 7.56699 11.0837V10.0337C8.41144 9.71144 9.08366 9.17532 9.58366 8.42532C10.0837 7.67532 10.3337 6.85033 10.3337 5.95033C10.3337 5.41699 10.2031 4.87533 9.94199 4.32533C9.68088 3.77533 9.33921 3.28921 8.91699 2.86699L8.43366 2.43366V4.50033H7.43366V0.666992ZM4.61699 11.3337H0.783659V10.3337H2.95033L2.70033 10.1337C1.98921 9.56699 1.47255 8.95033 1.15033 8.28366C0.828103 7.61699 0.666992 6.87255 0.666992 6.05032C0.666992 4.87255 1.01421 3.81421 1.70866 2.87533C2.4031 1.93644 3.31699 1.28921 4.45033 0.933659V1.96699C3.61699 2.28921 2.94477 2.82533 2.43366 3.57533C1.92255 4.32533 1.66699 5.15033 1.66699 6.05032C1.66699 6.75033 1.79755 7.35866 2.05866 7.87533C2.31977 8.39199 2.67255 8.83921 3.11699 9.21699L3.61699 9.56699V7.50033H4.61699V11.3337Z" fill="#616161"/>
</svg>
