<svg width="22" height="22" viewBox="0 0 22 22" fill="none" xmlns="http://www.w3.org/2000/svg">
<path d="M17.6187 0.916992C15.6996 0.916992 14.1526 2.4763 14.1526 4.38314C14.1526 4.56812 14.1662 4.75355 14.1944 4.93088L7.57234 8.54227C6.87739 7.73362 5.8493 7.22031 4.69947 7.22031C2.59892 7.22031 0.916992 8.917 0.916992 10.9979C0.916992 13.0787 2.59892 14.7803 4.69947 14.7803C5.85367 14.7803 6.87863 14.2664 7.57357 13.4572L14.1944 17.071C14.1662 17.2483 14.1526 17.4338 14.1526 17.6187C14.1526 19.5256 15.691 21.0837 17.6187 21.0837C19.5395 21.0837 21.0837 19.5256 21.0837 17.6187C21.0837 15.7119 19.5379 14.1526 17.6187 14.1526C16.3375 14.1526 15.2278 14.8401 14.6244 15.8664L8.21731 12.374C8.38554 11.9468 8.48195 11.483 8.48195 10.9979C8.48195 10.5138 8.38606 10.0527 8.21855 9.62667L14.624 6.13221C15.2274 7.15849 16.3357 7.84805 17.6187 7.84805C19.5325 7.84805 21.0837 6.28997 21.0837 4.38314C21.0837 2.4763 19.5379 0.916992 17.6187 0.916992V0.916992ZM17.6187 2.17741C18.8272 2.17741 19.8232 3.15748 19.8232 4.38314C19.8232 5.60879 18.827 6.58764 17.6187 6.58764C16.4105 6.58764 15.413 5.60879 15.413 4.38314C15.413 3.15748 16.4103 2.17741 17.6187 2.17741ZM4.69947 8.48195C6.08438 8.48195 7.22031 9.59818 7.22031 10.9979C7.22031 12.3975 6.08685 13.5199 4.69947 13.5199C3.31024 13.5199 2.17741 12.3975 2.17741 10.9979C2.17741 9.59818 3.31456 8.48195 4.69947 8.48195ZM17.6187 15.413C18.8346 15.413 19.8232 16.3931 19.8232 17.6187C19.8232 18.8444 18.827 19.8232 17.6187 19.8232C16.4105 19.8232 15.413 18.8444 15.413 17.6187C15.413 16.3931 16.4029 15.413 17.6187 15.413Z" fill="#424242"/>
</svg>
