<svg width="16" height="16" viewBox="0 0 16 16" fill="none" xmlns="http://www.w3.org/2000/svg">
<path d="M9.43463 2.66699H13.268V3.66699H11.0846L11.3346 3.90033C12.0013 4.52255 12.5013 5.18921 12.8346 5.90033C13.168 6.61144 13.3346 7.29477 13.3346 7.95033C13.3346 9.1281 12.9902 10.1892 12.3013 11.1337C11.6124 12.0781 10.7013 12.7281 9.56797 13.0837V12.0337C10.4124 11.7114 11.0846 11.1753 11.5846 10.4253C12.0846 9.67532 12.3346 8.85033 12.3346 7.95033C12.3346 7.41699 12.2041 6.87533 11.943 6.32533C11.6819 5.77533 11.3402 5.28921 10.918 4.86699L10.4346 4.43366V6.50033H9.43463V2.66699ZM6.61797 13.3337H2.78464V12.3337H4.9513L4.7013 12.1337C3.99019 11.567 3.47352 10.9503 3.1513 10.2837C2.82908 9.61699 2.66797 8.87255 2.66797 8.05032C2.66797 6.87255 3.01519 5.81421 3.70964 4.87533C4.40408 3.93644 5.31797 3.28921 6.4513 2.93366V3.96699C5.61797 4.28921 4.94575 4.82533 4.43464 5.57533C3.92352 6.32533 3.66797 7.15033 3.66797 8.05032C3.66797 8.75033 3.79852 9.35866 4.05964 9.87533C4.32075 10.392 4.67352 10.8392 5.11797 11.217L5.61797 11.567V9.50033H6.61797V13.3337Z" fill="#616161"/>
</svg>
