<svg width="22" height="22" viewBox="0 0 22 22" fill="none" xmlns="http://www.w3.org/2000/svg">
<path d="M17.3122 6.20098C17.3122 2.77696 14.4854 0 10.9999 0C7.51434 0 4.6875 2.77696 4.6875 6.20098C4.6875 9.625 7.51434 12.402 10.9999 12.402C14.4854 12.402 17.3122 9.625 17.3122 6.20098ZM6.3342 6.20098C6.3342 3.66667 8.42002 1.61765 10.9999 1.61765C13.5797 1.61765 15.6655 3.66667 15.6655 6.20098C15.6655 8.73529 13.5797 10.7843 10.9999 10.7843C8.42002 10.7843 6.3342 8.73529 6.3342 6.20098Z" fill="white"/>
<path d="M0.433212 21.8919C0.570437 21.9728 0.707662 21.9998 0.844887 21.9998C1.11934 21.9998 1.42123 21.865 1.55846 21.5954C3.47961 18.2522 7.10235 16.1762 10.9995 16.1762C14.8967 16.1762 18.5195 18.2522 20.4681 21.5954C20.6876 21.9728 21.2091 22.1076 21.5933 21.8919C21.9775 21.6762 22.1148 21.164 21.8952 20.7865C19.6722 16.9581 15.5005 14.5586 10.9995 14.5586C6.49856 14.5586 2.32692 16.9581 0.103872 20.7865C-0.115689 21.164 0.0215367 21.6762 0.433212 21.8919V21.8919Z" fill="white"/>
</svg>
