<svg width="22" height="22" viewBox="0 0 22 22" fill="none" xmlns="http://www.w3.org/2000/svg">
<g clip-path="url(#clip0_256_5220)">
<path d="M17.8987 13.83V9.97464C17.8987 7.23268 16.2938 4.77304 13.7972 3.66588V2.79857C13.7972 1.255 12.5414 0 10.9986 0C9.45586 0 8.20007 1.25579 8.20007 2.79857V3.66667C5.70424 4.77463 4.10012 7.23348 4.10012 9.97464V13.83L1.17419 17.7263C1.00278 17.9543 0.975242 18.2547 1.1034 18.5103C1.23081 18.7659 1.48791 18.9247 1.77335 18.9247H7.26432C7.61736 20.6916 9.18847 22 10.9994 22C12.8103 22 14.3814 20.6916 14.7345 18.9247H20.227C20.5125 18.9247 20.7688 18.7659 20.897 18.5103C21.0244 18.2547 20.9976 17.9544 20.8262 17.7263L17.8987 13.83ZM10.9978 20.5028C9.99448 20.5028 9.10988 19.8541 8.79377 18.9239H13.2012C12.8858 19.8541 12.0012 20.5028 10.9978 20.5028ZM16.5517 14.529L18.7275 17.4275H3.27054L5.44634 14.529C5.54307 14.4001 5.59652 14.2405 5.59652 14.0793V9.97384C5.59652 6.99442 8.01997 4.57096 10.9994 4.57096C13.9788 4.57096 16.4023 6.99442 16.4023 9.97384V14.0793C16.4015 14.2405 16.455 14.4001 16.5517 14.529ZM10.9978 1.4956C11.7158 1.4956 12.3 2.07985 12.3 2.79778V3.19725C11.4453 3.0345 10.5512 3.0345 9.69647 3.19725V2.79778C9.69647 2.07985 10.2799 1.4956 10.9978 1.4956Z" fill="white"/>
</g>
<defs>
<clipPath id="clip0_256_5220">
<rect width="22" height="22" fill="white"/>
</clipPath>
</defs>
</svg>
