<svg width="22" height="22" viewBox="0 0 22 22" fill="none" xmlns="http://www.w3.org/2000/svg">
<path d="M20.167 10.1332H20.1757C20.4024 10.1355 20.6193 10.2265 20.7798 10.387C20.9423 10.5495 21.0336 10.77 21.0336 10.9998C21.0336 11.2297 20.9423 11.4501 20.7798 11.6126C20.6173 11.7752 20.3968 11.8665 20.167 11.8665H18.27H18.226L18.2204 11.9102C18.0162 13.5123 17.2858 15.0012 16.1437 16.1432C15.0017 17.2853 13.5128 18.0157 11.9107 18.2199L11.867 18.2255V18.2695V20.1665C11.867 20.3964 11.7757 20.6168 11.6132 20.7794C11.4506 20.9419 11.2302 21.0332 11.0003 21.0332C10.7705 21.0332 10.55 20.9419 10.3875 20.7794C10.225 20.6168 10.1337 20.3964 10.1337 20.1665V18.2695V18.2255L10.09 18.2199C8.48788 18.0157 6.99894 17.2853 5.85692 16.1433C4.71489 15.0013 3.98445 13.5123 3.78025 11.9102L3.77468 11.8665H3.73065H1.83367C1.60381 11.8665 1.38337 11.7752 1.22084 11.6127C1.0583 11.4502 0.966992 11.2297 0.966992 10.9999C0.966992 10.77 1.0583 10.5496 1.22084 10.387C1.38337 10.2245 1.60381 10.1332 1.83367 10.1332H3.73065H3.77468L3.78025 10.0895C3.98444 8.48739 4.71487 6.99845 5.85689 5.85642C6.99891 4.71438 8.48784 3.98393 10.0899 3.77972L10.1336 3.77415V3.73012V1.83318C10.1336 1.60332 10.2249 1.38288 10.3875 1.22035C10.55 1.05781 10.7704 0.966504 11.0003 0.966504C11.2302 0.966504 11.4506 1.05781 11.6131 1.22035C11.7757 1.38288 11.867 1.60332 11.867 1.83318V3.73012V3.77415L11.9107 3.77972C13.5128 3.98392 15.0017 4.71437 16.1437 5.8564C17.2858 6.99844 18.0162 8.48739 18.2204 10.0895L18.226 10.1332H18.27H20.167ZM11.0003 16.5498H11.0004C12.4718 16.5481 13.8825 15.9629 14.9229 14.9224C15.9634 13.882 16.5486 12.4713 16.5503 10.9999V10.9998C16.5503 9.90215 16.2248 8.82911 15.615 7.91642C15.0051 7.00372 14.1383 6.29237 13.1242 5.8723C12.1101 5.45223 10.9942 5.34232 9.91757 5.55647C8.84097 5.77062 7.85206 6.29921 7.07588 7.07539C6.29969 7.85157 5.77111 8.84049 5.55696 9.91708C5.34281 10.9937 5.45272 12.1096 5.87279 13.1237C6.29285 14.1379 7.00421 15.0046 7.9169 15.6145C8.8296 16.2243 9.90263 16.5498 11.0003 16.5498Z" fill="#757575" stroke="white" stroke-width="0.1"/>
<path d="M10.9997 12.8835H10.9997C11.499 12.8829 11.9777 12.6843 12.3308 12.3313C12.6838 11.9782 12.8824 11.4995 12.883 11.0002V11.0001C12.883 10.6277 12.7726 10.2635 12.5656 9.95382C12.3587 9.6441 12.0645 9.40271 11.7204 9.26016C11.3763 9.11762 10.9976 9.08032 10.6322 9.15299C10.2669 9.22566 9.93132 9.40503 9.66793 9.66842C9.40454 9.93181 9.22517 10.2674 9.1525 10.6327C9.07983 10.9981 9.11713 11.3767 9.25968 11.7209C9.40222 12.065 9.64362 12.3591 9.95333 12.5661C10.263 12.773 10.6272 12.8835 10.9997 12.8835ZM8.99036 7.99301C9.58511 7.59561 10.2844 7.3835 10.9997 7.3835V7.3335L10.9996 7.3835C11.9585 7.3846 12.8778 7.76599 13.5558 8.44402C14.2338 9.12205 14.6152 10.0413 14.6163 11.0002C14.6163 11.7155 14.4042 12.4147 14.0068 13.0095C13.6094 13.6042 13.0446 14.0678 12.3837 14.3415C11.7228 14.6152 10.9956 14.6869 10.2941 14.5473C9.59253 14.4078 8.9481 14.0633 8.4423 13.5575C7.9365 13.0517 7.59205 12.4073 7.4525 11.7057C7.31295 11.0042 7.38457 10.277 7.65831 9.61611C7.93205 8.95526 8.3956 8.39041 8.99036 7.99301Z" fill="#757575" stroke="white" stroke-width="0.1"/>
</svg>
