<svg width="176" height="215" viewBox="0 0 176 215" fill="none" xmlns="http://www.w3.org/2000/svg">
<mask id="path-1-inside-1_270_17787" fill="white">
<path fill-rule="evenodd" clip-rule="evenodd" d="M10 0C4.47715 0 0 4.47715 0 10V197V198V215L15.1111 198H166C171.523 198 176 193.523 176 188V10C176 4.47715 171.523 0 166 0H10Z"/>
</mask>
<path fill-rule="evenodd" clip-rule="evenodd" d="M10 0C4.47715 0 0 4.47715 0 10V197V198V215L15.1111 198H166C171.523 198 176 193.523 176 188V10C176 4.47715 171.523 0 166 0H10Z" fill="white"/>
<path d="M0 215H-1V217.63L0.747409 215.664L0 215ZM15.1111 198V197H14.662L14.3637 197.336L15.1111 198ZM1 10C1 5.02944 5.02944 1 10 1V-1C3.92487 -1 -1 3.92487 -1 10H1ZM1 197V10H-1V197H1ZM1 198V197H-1V198H1ZM1 215V198H-1V215H1ZM14.3637 197.336L-0.747409 214.336L0.747409 215.664L15.8585 198.664L14.3637 197.336ZM166 197H15.1111V199H166V197ZM175 188C175 192.971 170.971 197 166 197V199C172.075 199 177 194.075 177 188H175ZM175 10V188H177V10H175ZM166 1C170.971 1 175 5.02944 175 10H177C177 3.92487 172.075 -1 166 -1V1ZM10 1H166V-1H10V1Z" fill="black" mask="url(#path-1-inside-1_270_17787)"/>
</svg>
