<svg width="48" height="48" viewBox="0 0 48 48" fill="none" xmlns="http://www.w3.org/2000/svg">
<path d="M1.4058 13.76L1.40575 13.7601C1.39249 13.7961 1.37888 13.8632 1.36969 13.9146C1.36049 13.966 1.35 14.0337 1.35 14.0723V17.6625C1.35 19.2415 2.27256 20.6003 3.6 21.2529V45.75C3.6 46.2477 4.00325 46.65 4.5 46.65H43.5C43.9976 46.65 44.4 46.2476 44.4 45.75V21.2529C45.7274 20.6003 46.65 19.2415 46.65 17.6625V14.0723C46.65 14.0324 46.6393 13.9642 46.6298 13.9126C46.6206 13.8618 46.6067 13.7952 46.5931 13.7591C46.593 13.7589 46.593 13.7587 46.5929 13.7585L43.65 5.79543V2.25C43.65 1.75241 43.2476 1.35 42.75 1.35H5.25C4.75325 1.35 4.35 1.75231 4.35 2.25V5.79467L1.4058 13.76ZM44.8493 17.6625V17.7204C44.8185 18.9107 43.8402 19.8705 42.6427 19.8705C41.4258 19.8705 40.4348 18.8801 40.4348 17.6625V14.9722H44.8493V17.6625ZM44.4584 13.1723H3.54162L5.87647 6.85575H42.1235L44.4584 13.1723ZM34.2202 14.9722H38.6348V17.6625C38.6348 18.8795 37.6443 19.8705 36.4275 19.8705C35.2106 19.8705 34.2202 18.8802 34.2202 17.6625V14.9722ZM28.0057 14.9722H32.421V17.6625C32.421 18.8795 31.4306 19.8705 30.2137 19.8705C28.9968 19.8705 28.0057 18.8801 28.0057 17.6625V14.9722ZM21.792 14.9722H26.2065V17.6625C26.2065 18.8795 25.2161 19.8705 23.9993 19.8705C22.7824 19.8705 21.792 18.8802 21.792 17.6625V14.9722ZM15.5775 14.9722H19.992V17.6625C19.992 18.8795 19.0016 19.8705 17.7847 19.8705C16.5679 19.8705 15.5775 18.8802 15.5775 17.6625V14.9722ZM9.363 14.9722H13.7775V17.6625C13.7775 18.8795 12.7871 19.8705 11.5702 19.8705C10.3534 19.8705 9.363 18.8802 9.363 17.6625V14.9722ZM6.15 3.15H41.85V5.055H6.15V3.15ZM3.15 17.6625V14.9722H7.5645V17.6625C7.5645 18.8795 6.5741 19.8705 5.35725 19.8705C4.14037 19.8705 3.15 18.8802 3.15 17.6625ZM5.4 44.85V42.9743H42.6V44.85H5.4ZM30.8468 41.1742V31.9163C30.8468 30.0168 32.3913 28.4722 34.2907 28.4722C36.1902 28.4722 37.7347 30.0168 37.7347 31.9163V41.1742H30.8468ZM42.6015 41.1742H39.5348V31.9163C39.5348 29.0247 37.1823 26.6723 34.2907 26.6723C31.3992 26.6723 29.0468 29.0247 29.0468 31.9163V41.1742H5.4V21.6638C6.6271 21.6741 7.74331 21.063 8.46432 20.1734C9.19779 21.0815 10.314 21.6705 11.5717 21.6705C12.8294 21.6705 13.945 21.0815 14.6789 20.1735C15.4124 21.0815 16.5286 21.6705 17.7863 21.6705C19.0439 21.6705 20.1595 21.0815 20.8934 20.1735C21.6269 21.0815 22.7431 21.6705 24.0007 21.6705C25.2584 21.6705 26.3745 21.0816 27.108 20.1736C27.8415 21.0816 28.9576 21.6705 30.2152 21.6705C31.4729 21.6705 32.5885 21.0815 33.3224 20.1735C34.0558 21.0815 35.1714 21.6705 36.4298 21.6705C37.6882 21.6705 38.8038 21.0815 39.5372 20.1734C40.2582 21.063 41.3744 21.6741 42.6015 21.6638V41.1742Z" fill="#616161" stroke="#616161" stroke-width="0.3"/>
<path d="M23.6835 33.9233H22.7625V27.5723C22.7625 27.0746 22.3592 26.6723 21.8625 26.6723H11.187C10.6902 26.6723 10.287 27.0746 10.287 27.5723V33.9233H9.36523C8.86849 33.9233 8.46523 34.3256 8.46523 34.8233C8.46523 35.321 8.86849 35.7233 9.36523 35.7233H23.6835C24.1802 35.7233 24.5835 35.321 24.5835 34.8233C24.5835 34.3256 24.1802 33.9233 23.6835 33.9233ZM12.087 33.9233V28.4723H20.9617V33.9233H12.087Z" fill="#616161" stroke="#616161" stroke-width="0.3"/>
</svg>
