<svg width="48" height="48" viewBox="0 0 48 48" fill="none" xmlns="http://www.w3.org/2000/svg">
<path d="M45 10.5H34.5C34.1025 10.5012 33.7217 10.6596 33.4407 10.9407C33.1596 11.2217 33.0012 11.6025 33 12V21H30V18C29.9988 17.6025 29.8404 17.2217 29.5593 16.9407C29.2783 16.6596 28.8975 16.5012 28.5 16.5H27V13.5C26.9988 13.1025 26.8404 12.7217 26.5593 12.4407C26.2783 12.1596 25.8975 12.0012 25.5 12V6C25.4988 5.60254 25.3404 5.2217 25.0593 4.94065C24.7783 4.6596 24.3975 4.50119 24 4.5H22.5V3H24.75V1.5H6.75V3H9V4.5H7.5C7.10254 4.50119 6.7217 4.6596 6.44065 4.94065C6.1596 5.2217 6.00119 5.60254 6 6V25.5H3C2.60254 25.5012 2.2217 25.6596 1.94065 25.9407C1.6596 26.2217 1.50119 26.6025 1.5 27V45C1.50119 45.3975 1.6596 45.7783 1.94065 46.0593C2.2217 46.3404 2.60254 46.4988 3 46.5H45C45.3975 46.4988 45.7783 46.3404 46.0593 46.0593C46.3404 45.7783 46.4988 45.3975 46.5 45V12C46.4988 11.6025 46.3404 11.2217 46.0593 10.9407C45.7783 10.6596 45.3975 10.5012 45 10.5ZM25.5 13.5V16.5H18.6525L20.655 13.5H25.5ZM10.5 3H21V4.5H10.5V3ZM10.5 45H9V28.5H7.5V45H6V28.5H4.5V45H3V27H10.5V45ZM10.5 18V25.5H7.5V6H24V12H20.655C20.4074 11.9992 20.1634 12.0598 19.9448 12.1762C19.7263 12.2927 19.5399 12.4615 19.4025 12.6675L16.845 16.5H12C11.6025 16.5012 11.2217 16.6596 10.9407 16.9407C10.6596 17.2217 10.5012 17.6025 10.5 18ZM22.5 22.5V45H12V18H28.5V21H24C23.6025 21.0012 23.2217 21.1596 22.9407 21.4407C22.6596 21.7217 22.5012 22.1025 22.5 22.5ZM36 45H24V22.5H36V45ZM45 45H43.5V22.5H42V45H40.5V22.5H39V45H37.5V22.5C37.4988 22.1025 37.3404 21.7217 37.0593 21.4407C36.7783 21.1596 36.3975 21.0012 36 21H34.5V12H45V45Z" fill="#616161"/>
<path d="M36 13.5H37.5V15H36V13.5Z" fill="#616161"/>
<path d="M36 16.5H37.5V18H36V16.5Z" fill="#616161"/>
<path d="M36 19.5H37.5V21H36V19.5Z" fill="#616161"/>
<path d="M42 13.5H43.5V15H42V13.5Z" fill="#616161"/>
<path d="M42 16.5H43.5V18H42V16.5Z" fill="#616161"/>
<path d="M42 19.5H43.5V21H42V19.5Z" fill="#616161"/>
<path d="M39 13.5H40.5V15H39V13.5Z" fill="#616161"/>
<path d="M39 16.5H40.5V18H39V16.5Z" fill="#616161"/>
<path d="M39 19.5H40.5V21H39V19.5Z" fill="#616161"/>
<path d="M9 7.5H10.5V9H9V7.5Z" fill="#616161"/>
<path d="M9 10.5H10.5V12H9V10.5Z" fill="#616161"/>
<path d="M9 13.5H10.5V15H9V13.5Z" fill="#616161"/>
<path d="M15 7.5H16.5V9H15V7.5Z" fill="#616161"/>
<path d="M15 10.5H16.5V12H15V10.5Z" fill="#616161"/>
<path d="M18 10.5H19.5V12H18V10.5Z" fill="#616161"/>
<path d="M15 13.5H16.5V15H15V13.5Z" fill="#616161"/>
<path d="M12 7.5H13.5V9H12V7.5Z" fill="#616161"/>
<path d="M21 7.5H22.5V9H21V7.5Z" fill="#616161"/>
<path d="M18 7.5H19.5V9H18V7.5Z" fill="#616161"/>
<path d="M12 10.5H13.5V12H12V10.5Z" fill="#616161"/>
<path d="M12 13.5H13.5V15H12V13.5Z" fill="#616161"/>
<path d="M13.5 19.5H15V21H13.5V19.5Z" fill="#616161"/>
<path d="M13.5 22.5H15V24H13.5V22.5Z" fill="#616161"/>
<path d="M13.5 25.5H15V27H13.5V25.5Z" fill="#616161"/>
<path d="M16.5 19.5H18V21H16.5V19.5Z" fill="#616161"/>
<path d="M16.5 22.5H18V24H16.5V22.5Z" fill="#616161"/>
<path d="M16.5 25.5H18V27H16.5V25.5Z" fill="#616161"/>
<path d="M13.5 28.5H15V30H13.5V28.5Z" fill="#616161"/>
<path d="M13.5 31.5H15V33H13.5V31.5Z" fill="#616161"/>
<path d="M13.5 34.5H15V36H13.5V34.5Z" fill="#616161"/>
<path d="M16.5 28.5H18V30H16.5V28.5Z" fill="#616161"/>
<path d="M16.5 31.5H18V33H16.5V31.5Z" fill="#616161"/>
<path d="M16.5 34.5H18V36H16.5V34.5Z" fill="#616161"/>
<path d="M13.5 37.5H15V39H13.5V37.5Z" fill="#616161"/>
<path d="M13.5 40.5H15V42H13.5V40.5Z" fill="#616161"/>
<path d="M16.5 37.5H18V39H16.5V37.5Z" fill="#616161"/>
<path d="M16.5 40.5H18V42H16.5V40.5Z" fill="#616161"/>
<path d="M19.5 19.5H21V21H19.5V19.5Z" fill="#616161"/>
<path d="M19.5 22.5H21V24H19.5V22.5Z" fill="#616161"/>
<path d="M19.5 25.5H21V27H19.5V25.5Z" fill="#616161"/>
<path d="M19.5 28.5H21V30H19.5V28.5Z" fill="#616161"/>
<path d="M19.5 31.5H21V33H19.5V31.5Z" fill="#616161"/>
<path d="M19.5 34.5H21V36H19.5V34.5Z" fill="#616161"/>
<path d="M19.5 37.5H21V39H19.5V37.5Z" fill="#616161"/>
<path d="M19.5 40.5H21V42H19.5V40.5Z" fill="#616161"/>
<path d="M25.5 24H29.25V25.5H25.5V24Z" fill="#616161"/>
<path d="M30.75 24H34.5V25.5H30.75V24Z" fill="#616161"/>
<path d="M25.5 27H29.25V28.5H25.5V27Z" fill="#616161"/>
<path d="M30.75 27H34.5V28.5H30.75V27Z" fill="#616161"/>
<path d="M25.5 30H29.25V31.5H25.5V30Z" fill="#616161"/>
<path d="M30.75 30H34.5V31.5H30.75V30Z" fill="#616161"/>
<path d="M25.5 33H29.25V34.5H25.5V33Z" fill="#616161"/>
<path d="M30.75 33H34.5V34.5H30.75V33Z" fill="#616161"/>
<path d="M25.5 36H29.25V37.5H25.5V36Z" fill="#616161"/>
<path d="M30.75 36H34.5V37.5H30.75V36Z" fill="#616161"/>
<path d="M25.5 39H29.25V40.5H25.5V39Z" fill="#616161"/>
<path d="M30.75 39H34.5V40.5H30.75V39Z" fill="#616161"/>
<path d="M25.5 42H29.25V43.5H25.5V42Z" fill="#616161"/>
<path d="M30.75 42H34.5V43.5H30.75V42Z" fill="#616161"/>
</svg>
