<svg width="18" height="18" viewBox="0 0 18 18" fill="none" xmlns="http://www.w3.org/2000/svg">
<path d="M9 16.5008C8.0625 16.5008 7.18438 16.3258 6.36563 15.9758C5.54688 15.6258 4.83125 15.1445 4.21875 14.532C3.60625 13.9195 3.125 13.2039 2.775 12.3852C2.425 11.5664 2.25 10.6883 2.25 9.75079H3.375C3.375 11.3133 3.92188 12.6414 5.01562 13.7352C6.10938 14.8289 7.4375 15.3758 9 15.3758C10.5625 15.3758 11.8906 14.8289 12.9844 13.7352C14.0781 12.6414 14.625 11.3133 14.625 9.75079C14.625 8.18829 14.0938 6.86016 13.0312 5.76641C11.9688 4.67266 10.6562 4.12578 9.09375 4.12578H8.6625L10.0312 5.49453L9.2625 6.28203L6.50625 3.52578L9.2625 0.769531L10.0312 1.53828L8.56875 3.00078H9C9.9375 3.00078 10.8156 3.17578 11.6344 3.52578C12.4531 3.87578 13.1687 4.35703 13.7812 4.96953C14.3938 5.58203 14.875 6.29766 15.225 7.11641C15.575 7.93516 15.75 8.81329 15.75 9.75079C15.75 10.6883 15.575 11.5664 15.225 12.3852C14.875 13.2039 14.3938 13.9195 13.7812 14.532C13.1687 15.1445 12.4531 15.6258 11.6344 15.9758C10.8156 16.3258 9.9375 16.5008 9 16.5008Z" fill="white"/>
</svg>
