<svg width="48" height="48" viewBox="0 0 48 48" fill="none" xmlns="http://www.w3.org/2000/svg">
<g clip-path="url(#clip0_217_2100)">
<path d="M43.6364 0H4.36367C1.95699 0 0 1.95699 0 4.36367V43.6364C0 46.043 1.95699 48.0001 4.36367 48.0001H43.6364C46.043 48.0001 48.0001 46.0431 48.0001 43.6364V4.36367C48 1.95699 46.043 0 43.6364 0ZM45.8182 43.6364C45.8182 44.8392 44.8392 45.8182 43.6364 45.8182H4.36367C3.16095 45.8182 2.18189 44.8392 2.18189 43.6364V4.36367C2.18189 3.16095 3.16095 2.18189 4.36367 2.18189H43.6364C44.8392 2.18189 45.8182 3.16095 45.8182 4.36367V43.6364Z" fill="#616161"/>
<path d="M38.1821 17.4544H30.5457V9.818C30.5457 9.21499 30.0578 8.72705 29.4548 8.72705H18.5457C17.9427 8.72705 17.4548 9.21499 17.4548 9.818V17.4544H9.81848C9.21548 17.4544 8.72754 17.9424 8.72754 18.5454V29.4544C8.72754 30.0574 9.21548 30.5453 9.81848 30.5453H17.4549V38.1817C17.4549 38.7847 17.9428 39.2727 18.5458 39.2727H29.4549C30.0579 39.2727 30.5458 38.7847 30.5458 38.1817V30.5453H38.1822C38.7852 30.5453 39.2732 30.0574 39.2732 29.4544V18.5452C39.2731 17.9422 38.7851 17.4544 38.1821 17.4544ZM37.0913 28.3634H29.4549C28.8519 28.3634 28.3639 28.8514 28.3639 29.4544V37.0908H19.6367V29.4544C19.6367 28.8514 19.1487 28.3634 18.5457 28.3634H10.9093V19.6362H18.5457C19.1487 19.6362 19.6367 19.1482 19.6367 18.5452V10.9088H28.3639V18.5452C28.3639 19.1482 28.8519 19.6362 29.4549 19.6362H37.0913V28.3634V28.3634Z" fill="#616161"/>
</g>
<defs>
<clipPath id="clip0_217_2100">
<rect width="48" height="48" fill="white"/>
</clipPath>
</defs>
</svg>
