<svg width="24" height="24" viewBox="0 0 24 24" fill="none" xmlns="http://www.w3.org/2000/svg">
<path d="M8.425 21C8.025 21 7.675 20.85 7.375 20.55C7.075 20.25 6.925 19.9 6.925 19.5V8.825C6.925 8.60833 6.95833 8.41667 7.025 8.25C7.09167 8.08333 7.21667 7.90833 7.4 7.725L13.875 1L14.85 1.775C14.95 1.85833 15.025 1.975 15.075 2.125C15.125 2.275 15.15 2.45833 15.15 2.675V2.925L14.025 8.2H21.5C21.9 8.2 22.25 8.35 22.55 8.65C22.85 8.95 23 9.3 23 9.7V11.75C23 12 22.9875 12.2083 22.9625 12.375C22.9375 12.5417 22.9167 12.65 22.9 12.7L19.85 19.725C19.7 20.075 19.4542 20.375 19.1125 20.625C18.7708 20.875 18.4083 21 18.025 21H8.425ZM8.425 19.5H18.35L21.5 12.025V9.7H12.175L13.5 3.475L8.425 8.825V19.5ZM1 21H5.425V8.825H1V21ZM8.425 19.5V8.825V9.7V12.025V19.5Z" fill="#616161"/>
</svg>
