<svg width="22" height="22" viewBox="0 0 22 22" fill="none" xmlns="http://www.w3.org/2000/svg">
<path d="M21.4393 8.55846L21.4394 8.55878C21.497 8.73663 21.4493 8.93165 21.316 9.06277C21.3159 9.0628 21.3159 9.06284 21.3159 9.06288L16.5151 13.8151L17.649 20.5274C17.649 20.5275 17.649 20.5275 17.649 20.5275C17.6805 20.7133 17.6035 20.9005 17.4507 21.0106L17.4506 21.0107C17.2978 21.1206 17.0958 21.1342 16.9297 21.0454L11.0007 17.8808L5.07176 21.0454C5.07174 21.0454 5.07172 21.0455 5.0717 21.0455C4.90562 21.1342 4.70351 21.1206 4.55071 21.0107L4.55061 21.0106C4.39773 20.9004 4.32105 20.7132 4.35233 20.5276L4.35234 20.5275L5.48621 13.8151L0.68504 9.06257L0.684959 9.06249H0.68496C0.552177 8.9312 0.504871 8.73602 0.562848 8.55841M21.4393 8.55846L0.562848 8.55841M21.4393 8.55846C21.3815 8.38112 21.2286 8.2517 21.0445 8.2235L21.0437 8.22338L14.4115 7.24526L11.445 1.14258L11.4454 1.14239L11.4397 1.1326C11.3487 0.97656 11.1817 0.880273 11.0007 0.880273C10.8198 0.880273 10.6525 0.976454 10.5617 1.13284L10.5613 1.13263L10.5565 1.14258L7.58995 7.24526M21.4393 8.55846L7.58995 7.24526M0.562848 8.55841C0.620671 8.38087 0.773744 8.251 0.958698 8.22317L0.959134 8.22311L7.58995 7.24526M0.562848 8.55841L7.58995 7.24526M15.6392 13.2936L15.639 13.2938L15.648 13.7019L15.5001 13.7269L15.5001 13.727L16.5087 19.7011L11.2331 16.8859C11.0879 16.8083 10.9134 16.8084 10.7682 16.8859L10.7681 16.8859L5.49278 19.7011L6.50208 13.727C6.52895 13.5684 6.47693 13.4069 6.36301 13.2938L6.36282 13.2936L2.08103 9.05602L7.99222 8.18391C7.99223 8.18391 7.99225 8.1839 7.99226 8.1839C8.15379 8.1601 8.29265 8.05798 8.36405 7.91172L8.36416 7.9115L11.0007 2.48778L13.6373 7.9115L13.6374 7.91157C13.7087 8.05806 13.8478 8.16011 14.0092 8.1839C14.0092 8.1839 14.0093 8.18391 14.0093 8.18391L19.9205 9.05602L15.6392 13.2936Z" fill="#424242" stroke="#424242" stroke-width="0.3"/>
</svg>
