<svg width="24" height="24" viewBox="0 0 24 24" fill="none" xmlns="http://www.w3.org/2000/svg">
<path d="M5 7.6H6.4V9.00001C6.4 9.17273 6.45801 9.32444 6.56679 9.43322C6.67557 9.542 6.82728 9.60001 7 9.60001C7.17273 9.60001 7.32444 9.542 7.43322 9.43322C7.54199 9.32444 7.6 9.17273 7.6 9.00001V7.6H9.00001C9.17273 7.6 9.32444 7.54199 9.43322 7.43322C9.542 7.32444 9.60001 7.17273 9.60001 7C9.60001 6.82728 9.542 6.67557 9.43322 6.56679C9.32444 6.45801 9.17273 6.4 9.00001 6.4H7.6V5C7.6 4.82728 7.54199 4.67557 7.43322 4.56679C7.32444 4.45801 7.17273 4.4 7 4.4C6.82728 4.4 6.67557 4.45801 6.56679 4.56679C6.45801 4.67557 6.4 4.82728 6.4 5V6.4H5C4.82728 6.4 4.67557 6.45801 4.56679 6.56679C4.45801 6.67557 4.4 6.82728 4.4 7C4.4 7.17273 4.45801 7.32444 4.56679 7.43322C4.67557 7.54199 4.82728 7.6 5 7.6Z" fill="#8B653E" stroke="#8B653E" stroke-width="0.2"/>
<path d="M22 1.4H12H2C1.82728 1.4 1.67557 1.45801 1.56679 1.56679C1.45801 1.67557 1.4 1.82728 1.4 2V12V22C1.4 22.1727 1.45801 22.3244 1.56679 22.4332C1.67557 22.542 1.82728 22.6 2 22.6H12H22C22.1727 22.6 22.3244 22.542 22.4332 22.4332C22.542 22.3244 22.6 22.1727 22.6 22V12V2C22.6 1.82728 22.542 1.67557 22.4332 1.56679C22.3244 1.45801 22.1727 1.4 22 1.4ZM11.4 21.4H2.6V12.6H11.4V21.4ZM11.4 11.4H2.6V2.6H11.4V11.4ZM21.4 21.4H12.6V12.6H21.4V21.4ZM21.4 11.4H12.6V2.6H21.4V11.4Z" fill="#8B653E" stroke="#8B653E" stroke-width="0.2"/>
<path d="M15 7.6H19C19.1727 7.6 19.3244 7.54199 19.4332 7.43321C19.542 7.32444 19.6 7.17273 19.6 7C19.6 6.82728 19.542 6.67557 19.4332 6.56679C19.3244 6.45801 19.1727 6.4 19 6.4H15C14.8273 6.4 14.6756 6.45801 14.5668 6.56679C14.458 6.67557 14.4 6.82728 14.4 7C14.4 7.17273 14.458 7.32444 14.5668 7.43321C14.6756 7.54199 14.8273 7.6 15 7.6Z" fill="#8B653E" stroke="#8B653E" stroke-width="0.2"/>
<path d="M5.1789 18.8203C5.29888 18.9403 5.47487 18.9996 5.59961 18.9996C5.72434 18.9996 5.90034 18.9403 6.02032 18.8203L6.99961 17.841L7.97889 18.8203C8.09887 18.9403 8.27487 18.9996 8.3996 18.9996C8.52434 18.9996 8.70034 18.9403 8.82031 18.8203C9.05937 18.5813 9.05937 18.218 8.82031 17.9789L7.84103 16.9996L8.82031 16.0203C9.05937 15.7813 9.05937 15.418 8.82031 15.1789C8.58126 14.9398 8.21795 14.9398 7.97889 15.1789L6.99961 16.1582L6.02032 15.1789C5.78127 14.9398 5.41795 14.9398 5.1789 15.1789C4.93985 15.418 4.93985 15.7813 5.1789 16.0203L6.15819 16.9996L5.1789 17.9789C4.93985 18.218 4.93985 18.5813 5.1789 18.8203Z" fill="#8B653E" stroke="#8B653E" stroke-width="0.2"/>
<path d="M15 16.6H19C19.1727 16.6 19.3244 16.542 19.4332 16.4332C19.542 16.3244 19.6 16.1727 19.6 16C19.6 15.8273 19.542 15.6756 19.4332 15.5668C19.3244 15.458 19.1727 15.4 19 15.4H15C14.8273 15.4 14.6756 15.458 14.5668 15.5668C14.458 15.6756 14.4 15.8273 14.4 16C14.4 16.1727 14.458 16.3244 14.5668 16.4332C14.6756 16.542 14.8273 16.6 15 16.6Z" fill="#8B653E" stroke="#8B653E" stroke-width="0.2"/>
<path d="M15 18.6H19C19.1727 18.6 19.3244 18.542 19.4332 18.4332C19.542 18.3244 19.6 18.1727 19.6 18C19.6 17.8273 19.542 17.6756 19.4332 17.5668C19.3244 17.458 19.1727 17.4 19 17.4H15C14.8273 17.4 14.6756 17.458 14.5668 17.5668C14.458 17.6756 14.4 17.8273 14.4 18C14.4 18.1727 14.458 18.3244 14.5668 18.4332C14.6756 18.542 14.8273 18.6 15 18.6Z" fill="#8B653E" stroke="#8B653E" stroke-width="0.2"/>
</svg>
