<svg width="48" height="48" viewBox="0 0 48 48" fill="none" xmlns="http://www.w3.org/2000/svg">
<path fill-rule="evenodd" clip-rule="evenodd" d="M10.8387 4.18953H37.1611C38.3726 4.18953 39.3547 5.16982 39.3547 6.37906V30.4639C39.3547 31.6732 38.3726 32.6534 37.1611 32.6534H33.3328H14.6674H10.8387C9.6272 32.6534 8.64514 31.6732 8.64514 30.4639V6.37906C8.64514 5.16982 9.6272 4.18953 10.8387 4.18953ZM13.0721 34.8429H10.8387C8.41576 34.8429 6.4516 32.8824 6.4516 30.4639V6.37906C6.4516 3.96057 8.41576 2 10.8387 2H37.1611C39.5839 2 41.5482 3.96057 41.5482 6.37906V30.4639C41.5482 32.8824 39.5839 34.8429 37.1611 34.8429H34.9279L41.7901 44.2612C42.1464 44.7503 42.0382 45.435 41.5482 45.7906C41.0584 46.1462 40.3725 46.038 40.0162 45.5491L38.5968 43.6011H9.4032L7.98383 45.5491C7.62756 46.038 6.94164 46.1462 6.45176 45.7906C5.96188 45.435 5.85358 44.7503 6.20985 44.2612L13.0721 34.8429ZM10.9985 41.4115H37.0014L35.4063 39.222H12.5938L10.9985 41.4115ZM32.2156 34.8429L33.8109 37.0325H14.1891L15.7844 34.8429H32.2156ZM34.9676 12.9476H13.0322V19.5162H34.9676V12.9476ZM13.0322 10.7581C11.8207 10.7581 10.8387 11.7384 10.8387 12.9476V19.5162C10.8387 20.7255 11.8207 21.7058 13.0322 21.7058H34.9676C36.1791 21.7058 37.1611 20.7255 37.1611 19.5162V12.9476C37.1611 11.7384 36.1791 10.7581 34.9676 10.7581H13.0322ZM29.4838 8.56859C30.0894 8.56859 30.5805 8.07844 30.5805 7.47382C30.5805 6.86921 30.0894 6.37906 29.4838 6.37906H18.516C17.9103 6.37906 17.4193 6.86921 17.4193 7.47382C17.4193 8.07844 17.9103 8.56859 18.516 8.56859H29.4838ZM14.129 28.2743C14.7347 28.2743 15.2257 27.7841 15.2257 27.1796C15.2257 26.5751 14.7347 26.0848 14.129 26.0848C13.5232 26.0848 13.0322 26.5751 13.0322 27.1796C13.0322 27.7841 13.5232 28.2743 14.129 28.2743ZM14.129 30.4639C15.9462 30.4639 17.4193 28.9934 17.4193 27.1796C17.4193 25.3658 15.9462 23.8953 14.129 23.8953C12.3118 23.8953 10.8387 25.3658 10.8387 27.1796C10.8387 28.9934 12.3118 30.4639 14.129 30.4639ZM34.9676 27.1796C34.9676 27.7841 34.4765 28.2743 33.8708 28.2743C33.265 28.2743 32.7741 27.7841 32.7741 27.1796C32.7741 26.5751 33.265 26.0848 33.8708 26.0848C34.4765 26.0848 34.9676 26.5751 34.9676 27.1796ZM37.1611 27.1796C37.1611 28.9934 35.6879 30.4639 33.8708 30.4639C32.0535 30.4639 30.5805 28.9934 30.5805 27.1796C30.5805 25.3658 32.0535 23.8953 33.8708 23.8953C35.6879 23.8953 37.1611 25.3658 37.1611 27.1796Z" fill="#616161"/>
</svg>
