<svg width="48" height="48" viewBox="0 0 48 48" fill="none" xmlns="http://www.w3.org/2000/svg">
<g clip-path="url(#clip0_217_2173)">
<path d="M14.8409 35.4546H6.59299C6.13986 35.4546 5.77246 35.822 5.77246 36.2751V47.1792C5.77246 47.6324 6.13986 47.9998 6.59299 47.9998H14.8409C15.294 47.9998 15.6614 47.6324 15.6614 47.1792V36.2751C15.6613 35.822 15.294 35.4546 14.8409 35.4546ZM14.0203 46.3587H7.41351V37.0956H14.0203V46.3587Z" fill="#616161"/>
<path d="M29.3654 24.8115H21.1174C20.6643 24.8115 20.2969 25.1789 20.2969 25.6321V47.1792C20.2969 47.6323 20.6643 47.9997 21.1174 47.9997H29.3654C29.8185 47.9997 30.1859 47.6323 30.1859 47.1792V25.6321C30.1858 25.1789 29.8185 24.8115 29.3654 24.8115ZM28.5448 46.3587H21.9379V26.4526H28.5448V46.3587Z" fill="#616161"/>
<path d="M43.8867 14.1689H35.6389C35.1858 14.1689 34.8184 14.5363 34.8184 14.9895V47.1796C34.8184 47.6327 35.1858 48.0001 35.6389 48.0001H43.8867C44.3399 48.0001 44.7073 47.6327 44.7073 47.1796V14.9895C44.7073 14.5363 44.3399 14.1689 43.8867 14.1689ZM43.0662 46.3591H36.4594V15.81H43.0662V46.3591Z" fill="#616161"/>
<path d="M41.6959 4.75545L43.8879 0L38.6735 0.478753L39.7111 1.94699L3.29102 27.6863L4.23811 29.0264L40.6583 3.28721L41.6959 4.75545Z" fill="#616161"/>
</g>
<defs>
<clipPath id="clip0_217_2173">
<rect width="48" height="48" fill="white"/>
</clipPath>
</defs>
</svg>
