<svg width="195" height="38" viewBox="0 0 195 38" fill="none" xmlns="http://www.w3.org/2000/svg">
<g clip-path="url(#clip0_379_3894)">
<path d="M55.0001 24.2292C55.6156 25.0168 55.942 25.9838 55.9269 26.9746C55.9668 27.6653 55.8426 28.3556 55.564 28.9915C55.2853 29.6274 54.8598 30.1916 54.3208 30.64C53.2501 31.503 51.7119 31.9329 49.7063 31.9297H40.002V13.8496H49.4395C51.3221 13.8496 52.8037 14.2495 53.8841 15.0493C54.4247 15.4601 54.8548 15.9934 55.1372 16.6031C55.4195 17.2128 55.5457 17.8806 55.5047 18.5486C55.5364 19.5064 55.2373 20.4468 54.6556 21.2182C54.0901 21.9307 53.2922 22.4327 52.3945 22.6407C53.4294 22.8489 54.3537 23.4124 55.0001 24.2292ZM45.81 20.91H48.0566C48.4689 20.9422 48.88 20.8351 49.2211 20.6065C49.3534 20.4867 49.4562 20.3391 49.5218 20.1748C49.5873 20.0106 49.6139 19.8339 49.5996 19.6582C49.6146 19.4774 49.5884 19.2957 49.523 19.126C49.4575 18.9562 49.3545 18.8028 49.2211 18.6767C48.8847 18.437 48.4717 18.3226 48.0566 18.3542H45.81V20.91ZM49.6141 27.1074C49.747 26.988 49.8502 26.8405 49.9158 26.6761C49.9814 26.5117 50.0077 26.3349 49.9926 26.1591C49.9926 25.2866 49.4783 24.8551 48.4496 24.8551H45.81V27.4061H48.4496C48.8625 27.4307 49.2721 27.3206 49.6141 27.0932V27.1074Z" fill="#001F60"/>
<path d="M62.1084 30.9109C60.6697 30.1283 59.4731 28.9819 58.6439 27.5917C57.8043 26.1341 57.3633 24.4896 57.3633 22.8168C57.3633 21.1441 57.8043 19.4996 58.6439 18.0419C59.4702 16.6496 60.6676 15.5025 62.1084 14.7228C63.5791 13.9446 65.2251 13.5371 66.8975 13.5371C68.5699 13.5371 70.2159 13.9446 71.6866 14.7228C73.119 15.5037 74.3066 16.6512 75.122 18.0419C75.9557 19.5015 76.3934 21.1453 76.3934 22.8168C76.3934 24.4884 75.9557 26.1322 75.122 27.5917C74.3009 28.983 73.1084 30.1303 71.6721 30.9109C70.2069 31.6979 68.5621 32.1105 66.8902 32.1105C65.2184 32.1105 63.5736 31.6979 62.1084 30.9109ZM69.5711 25.7377C70.1808 24.874 70.5073 23.8495 70.5073 22.8002C70.5073 21.751 70.1808 20.7265 69.5711 19.8628C69.2191 19.5185 68.8012 19.2454 68.3412 19.0591C67.8812 18.8728 67.3882 18.7769 66.8902 18.7769C66.3923 18.7769 65.8992 18.8728 65.4392 19.0591C64.9793 19.2454 64.5613 19.5185 64.2094 19.8628C63.5964 20.7252 63.2679 21.7502 63.2679 22.8002C63.2679 23.8503 63.5964 24.8753 64.2094 25.7377C64.5613 26.082 64.9793 26.355 65.4392 26.5414C65.8992 26.7277 66.3923 26.8236 66.8902 26.8236C67.3882 26.8236 67.8812 26.7277 68.3412 26.5414C68.8012 26.355 69.2191 26.082 69.5711 25.7377Z" fill="#001F60"/>
<path d="M96.2289 31.9297H90.4062L84.2633 22.8399V31.9297H78.4844V13.8496H84.2828L90.4256 23.0912V13.8496H96.2483L96.2289 31.9297Z" fill="#001F60"/>
<path d="M103.065 30.9109C101.627 30.1283 100.43 28.9819 99.601 27.5917C98.7614 26.1341 98.3203 24.4896 98.3203 22.8168C98.3203 21.1441 98.7614 19.4996 99.601 18.0419C100.427 16.6496 101.625 15.5025 103.065 14.7228C104.536 13.9446 106.182 13.5371 107.855 13.5371C109.527 13.5371 111.173 13.9446 112.644 14.7228C114.076 15.5037 115.264 16.6512 116.079 18.0419C116.91 19.5025 117.346 21.1459 117.346 22.8168C117.346 24.4878 116.91 26.1312 116.079 27.5917C115.258 28.983 114.065 30.1303 112.629 30.9109C111.164 31.6979 109.519 32.1105 107.847 32.1105C106.175 32.1105 104.531 31.6979 103.065 30.9109ZM110.528 25.7377C111.138 24.874 111.464 23.8495 111.464 22.8002C111.464 21.751 111.138 20.7265 110.528 19.8628C110.176 19.5185 109.758 19.2454 109.298 19.0591C108.838 18.8728 108.345 18.7769 107.847 18.7769C107.349 18.7769 106.856 18.8728 106.396 19.0591C105.936 19.2454 105.518 19.5185 105.166 19.8628C104.553 20.7252 104.225 21.7502 104.225 22.8002C104.225 23.8503 104.553 24.8753 105.166 25.7377C105.518 26.082 105.936 26.355 106.396 26.5414C106.856 26.7277 107.349 26.8236 107.847 26.8236C108.345 26.8236 108.838 26.7277 109.298 26.5414C109.758 26.355 110.176 26.082 110.528 25.7377Z" fill="#001F60"/>
<path d="M129.685 27.6385H135.275V31.906H123.882V13.8496H129.704L129.685 27.6385Z" fill="#001F60"/>
<path d="M148.973 29.1985H142.805L141.888 31.9297H135.799L142.568 13.8496H149.239L155.984 31.9297H149.885L148.973 29.1985ZM147.561 24.931L145.887 19.9L144.213 24.931H147.561Z" fill="#001F60"/>
<path d="M175.058 31.9297H169.235L163.092 22.8399V31.9297H157.27V13.8496H163.092L169.235 23.0912V13.8496H175.058V31.9297Z" fill="#001F60"/>
<path d="M190.483 14.9984C191.894 15.7227 193.06 16.8311 193.84 18.1896C194.615 19.6225 195.019 21.2184 195.019 22.8388C195.019 24.4592 194.615 26.0551 193.84 27.488C193.066 28.8734 191.9 30.0122 190.483 30.7693C188.92 31.5862 187.169 31.9945 185.398 31.9547H177.668V13.8509H185.378C187.151 13.8073 188.907 14.202 190.483 14.9984ZM187.989 25.8285C188.386 25.4387 188.694 24.9708 188.893 24.4558C189.091 23.9407 189.175 23.3903 189.139 22.8412C189.17 22.2923 189.081 21.7433 188.88 21.23C188.678 20.7168 188.368 20.2511 187.969 19.8634C187.111 19.1329 185.995 18.7586 184.859 18.8202H183.471V26.8811H184.859C185.996 26.9401 187.113 26.5623 187.969 25.8285H187.989Z" fill="#001F60"/>
<path d="M17.5067 6.58622L14.6342 4.97404L11.7229 6.58622V16.6244L8.62235 14.8605L5.7547 13.2483V0L0 3.26703V29.7637L5.7547 33.007L11.7472 36.3878L14.6585 38.019L17.531 36.3878V13.0918L23.5234 16.4916V32.9833L26.3911 31.3521L29.3024 29.74V13.2483L17.5067 6.58622ZM11.7472 29.8775L5.7547 26.5014V19.716L11.7472 23.1158V29.8775Z" fill="#BD9369"/>
</g>
<defs>
<clipPath id="clip0_379_3894">
<rect width="195" height="38" fill="white"/>
</clipPath>
</defs>
</svg>
