<svg width="22" height="22" viewBox="0 0 22 22" fill="none" xmlns="http://www.w3.org/2000/svg">
<path d="M20.167 10.1327H20.1757C20.4024 10.135 20.6193 10.226 20.7798 10.3865C20.9423 10.549 21.0336 10.7695 21.0336 10.9993C21.0336 11.2292 20.9423 11.4496 20.7798 11.6122C20.6173 11.7747 20.3968 11.866 20.167 11.866H18.27H18.226L18.2204 11.9097C18.0162 13.5118 17.2858 15.0007 16.1437 16.1428C15.0017 17.2848 13.5128 18.0152 11.9107 18.2195L11.867 18.225V18.2691V20.166C11.867 20.3959 11.7757 20.6163 11.6132 20.7789C11.4506 20.9414 11.2302 21.0327 11.0003 21.0327C10.7705 21.0327 10.55 20.9414 10.3875 20.7789C10.225 20.6163 10.1337 20.3959 10.1337 20.166V18.2691V18.225L10.09 18.2195C8.48788 18.0153 6.99894 17.2848 5.85692 16.1428C4.71489 15.0008 3.98445 13.5118 3.78025 11.9097L3.77468 11.866H3.73065H1.83367C1.60381 11.866 1.38337 11.7747 1.22084 11.6122C1.0583 11.4497 0.966992 11.2292 0.966992 10.9994C0.966992 10.7695 1.0583 10.5491 1.22084 10.3865C1.38337 10.224 1.60381 10.1327 1.83367 10.1327H3.73065H3.77468L3.78025 10.089C3.98444 8.4869 4.71487 6.99796 5.85689 5.85593C6.99891 4.71389 8.48784 3.98344 10.0899 3.77923L10.1336 3.77366V3.72963V1.83269C10.1336 1.60283 10.2249 1.38239 10.3875 1.21986C10.55 1.05733 10.7704 0.966016 11.0003 0.966016C11.2302 0.966016 11.4506 1.05733 11.6131 1.21986C11.7757 1.38239 11.867 1.60283 11.867 1.83269V3.72963V3.77366L11.9107 3.77923C13.5128 3.98343 15.0017 4.71388 16.1437 5.85592C17.2858 6.99795 18.0162 8.4869 18.2204 10.089L18.226 10.1327H18.27H20.167ZM11.0003 16.5493H11.0004C12.4718 16.5477 13.8825 15.9624 14.9229 14.9219C15.9634 13.8815 16.5486 12.4708 16.5503 10.9994V10.9993C16.5503 9.90166 16.2248 8.82862 15.615 7.91593C15.0051 7.00323 14.1383 6.29188 13.1242 5.87181C12.1101 5.45175 10.9942 5.34184 9.91757 5.55598C8.84097 5.77013 7.85206 6.29872 7.07588 7.0749C6.29969 7.85108 5.77111 8.84 5.55696 9.91659C5.34281 10.9932 5.45272 12.1091 5.87279 13.1232C6.29285 14.1374 7.00421 15.0042 7.9169 15.614C8.8296 16.2238 9.90263 16.5493 11.0003 16.5493Z" fill="#8B653E" stroke="white" stroke-width="0.1"/>
<path d="M10.9997 12.884H10.9997C11.499 12.8834 11.9777 12.6848 12.3308 12.3317C12.6838 11.9787 12.8824 11.5 12.883 11.0007V11.0006C12.883 10.6281 12.7726 10.264 12.5656 9.9543C12.3587 9.64459 12.0645 9.4032 11.7204 9.26065C11.3763 9.1181 10.9976 9.08081 10.6322 9.15348C10.2669 9.22615 9.93132 9.40552 9.66793 9.66891C9.40454 9.9323 9.22517 10.2679 9.1525 10.6332C9.07983 10.9985 9.11713 11.3772 9.25968 11.7214C9.40222 12.0655 9.64362 12.3596 9.95333 12.5666C10.263 12.7735 10.6272 12.884 10.9997 12.884ZM8.99036 7.9935C9.58511 7.5961 10.2844 7.38398 10.9997 7.38398V7.33398L10.9996 7.38398C11.9585 7.38508 12.8778 7.76648 13.5558 8.44451C14.2338 9.12253 14.6152 10.0418 14.6163 11.0007C14.6163 11.716 14.4042 12.4152 14.0068 13.0099C13.6094 13.6047 13.0446 14.0683 12.3837 14.342C11.7228 14.6157 10.9956 14.6873 10.2941 14.5478C9.59253 14.4082 8.9481 14.0638 8.4423 13.558C7.9365 13.0522 7.59205 12.4078 7.4525 11.7062C7.31295 11.0046 7.38457 10.2775 7.65831 9.6166C7.93205 8.95575 8.3956 8.3909 8.99036 7.9935Z" fill="#8B653E" stroke="white" stroke-width="0.1"/>
</svg>
