<svg width="48" height="48" viewBox="0 0 48 48" fill="none" xmlns="http://www.w3.org/2000/svg">
<path d="M47.5793 18.2558L24.6929 0.551634C24.3026 0.249857 23.7583 0.249857 23.3677 0.550788L0.421558 18.2549C0.155756 18.4602 0 18.7768 0 19.1129V28.465C0 28.8781 0.234904 29.2552 0.605672 29.4376C0.976439 29.6196 1.41831 29.5752 1.74549 29.3229L5.18694 26.6683V46.8023C5.18694 47.4004 5.67198 47.8859 6.27046 47.8859H41.3224C41.9209 47.8859 42.4059 47.4004 42.4059 46.8023V26.3458L46.2537 29.3225C46.5804 29.5752 47.0227 29.6201 47.3939 29.4381C47.7647 29.2561 48 28.8785 48 28.4654V19.1129C48 18.7776 47.8447 18.4611 47.5793 18.2558ZM28.3569 45.7188H19.8301V34.928H28.3569V45.7188ZM40.2389 45.7188H30.524V33.8441C30.524 33.246 30.0385 32.7606 29.4405 32.7606H18.7466C18.1481 32.7606 17.6631 33.246 17.6631 33.8441V45.7184H7.35398V24.996L24.0292 12.1305L40.2389 24.6693V45.7188ZM45.833 26.2573L24.6929 9.9042C24.3026 9.60242 23.7583 9.602 23.3677 9.90293L2.16704 26.2607V19.6453L24.0288 2.77793L45.833 19.6445V26.2573Z" fill="#616161"/>
</svg>
