<svg width="22" height="22" viewBox="0 0 22 22" fill="none" xmlns="http://www.w3.org/2000/svg">
<path d="M21.057 8.53753C20.9907 8.32511 20.8169 8.17338 20.6058 8.1387L14.3144 7.20233L11.4832 1.24163C11.388 1.04222 11.1935 0.916504 10.9824 0.916504C10.7713 0.916504 10.5767 1.04222 10.4815 1.24597L7.68764 7.22401L1.3962 8.20373C1.1851 8.23841 1.01126 8.39014 0.945036 8.60255C0.87881 8.81497 0.936758 9.04906 1.0899 9.20079L5.65534 13.835L4.59987 20.3982C4.56262 20.6193 4.64954 20.8404 4.82338 20.9705C4.91858 21.0442 5.03448 21.0832 5.15037 21.0832C5.24143 21.0832 5.32835 21.0615 5.41113 21.0138L11.0279 17.8969L16.6612 20.9791C16.744 21.0225 16.8309 21.0442 16.9179 21.0442C17.2241 21.0442 17.4766 20.7797 17.4766 20.4589C17.4766 20.4112 17.4725 20.3679 17.4601 20.3245L16.3715 13.8003L20.908 9.1401C21.0694 8.98404 21.1232 8.74994 21.057 8.53753ZM15.3864 13.1804C15.2539 13.3148 15.196 13.5098 15.2291 13.7006L16.177 19.3925L11.2845 16.7178C11.1231 16.6267 10.9286 16.6311 10.763 16.7178L5.88713 19.4228L6.80188 13.7223C6.83085 13.5315 6.7729 13.3408 6.64045 13.2064L2.68346 9.18345L8.14295 8.33378C8.32507 8.30343 8.48235 8.18639 8.561 8.01299L10.9865 2.82393L13.4451 7.99998C13.5279 8.17338 13.6852 8.29043 13.8673 8.32077L19.331 9.13576L15.3864 13.1804Z" fill="#424242"/>
</svg>
