<svg width="48" height="48" viewBox="0 0 48 48" fill="none" xmlns="http://www.w3.org/2000/svg">
<path d="M33.6113 46.3757C33.761 46.5255 33.9642 46.6096 34.176 46.6096C34.3878 46.6096 34.591 46.5255 34.7407 46.3757C34.8905 46.2259 34.9747 46.0228 34.9747 45.811V1.70285C34.9747 1.49103 34.8905 1.28789 34.7407 1.13812C34.591 0.988342 34.3878 0.904199 34.176 0.904199C33.9642 0.904199 33.761 0.988342 33.6113 1.13812C33.4615 1.28789 33.3773 1.49103 33.3773 1.70285V45.811C33.3773 46.0228 33.4615 46.2259 33.6113 46.3757Z" fill="#616161" stroke="#616161" stroke-width="0.3"/>
<path d="M13.2597 46.3757C13.4095 46.5255 13.6126 46.6096 13.8244 46.6096C14.0362 46.6096 14.2394 46.5255 14.3892 46.3757C14.5389 46.2259 14.6231 46.0228 14.6231 45.811V1.70285C14.6231 1.49103 14.5389 1.28789 14.3892 1.13812C14.2394 0.988343 14.0362 0.904199 13.8244 0.904199C13.6126 0.904199 13.4095 0.988342 13.2597 1.13812C13.1099 1.28789 13.0258 1.49103 13.0258 1.70285V45.811C13.0258 46.0228 13.1099 46.2259 13.2597 46.3757Z" fill="#616161" stroke="#616161" stroke-width="0.3"/>
<path d="M37.2597 46.3757C37.4095 46.5255 37.6126 46.6096 37.8244 46.6096C38.0363 46.6096 38.2394 46.5255 38.3892 46.3757C38.539 46.2259 38.6231 46.0228 38.6231 45.811V1.70285C38.6231 1.49103 38.539 1.28789 38.3892 1.13812C38.2394 0.988342 38.0363 0.904199 37.8244 0.904199C37.6126 0.904199 37.4095 0.988342 37.2597 1.13812C37.1099 1.28789 37.0258 1.49103 37.0258 1.70285V45.811C37.0258 46.0228 37.1099 46.2259 37.2597 46.3757Z" fill="#616161" stroke="#616161" stroke-width="0.3"/>
<path d="M9.61126 46.3757C9.76104 46.5255 9.96418 46.6096 10.176 46.6096C10.3878 46.6096 10.5909 46.5255 10.7407 46.3757C10.8905 46.2259 10.9746 46.0228 10.9746 45.811V1.70285C10.9746 1.49103 10.8905 1.28789 10.7407 1.13812C10.5909 0.988342 10.3878 0.904199 10.176 0.904199C9.96418 0.904199 9.76104 0.988342 9.61126 1.13812C9.46149 1.28789 9.37734 1.49103 9.37734 1.70285V45.811C9.37734 46.0228 9.46149 46.2259 9.61126 46.3757Z" fill="#616161" stroke="#616161" stroke-width="0.3"/>
<path d="M23.4355 4.27507C23.5853 4.42484 23.7884 4.50899 24.0002 4.50899C24.212 4.50899 24.4152 4.42484 24.565 4.27507C24.7147 4.12529 24.7989 3.92215 24.7989 3.71034V1.94601C24.7989 1.7342 24.7147 1.53106 24.565 1.38128C24.4152 1.23151 24.212 1.14736 24.0002 1.14736C23.7884 1.14736 23.5853 1.23151 23.4355 1.38128C23.2857 1.53106 23.2016 1.7342 23.2016 1.94601V3.71034C23.2016 3.92215 23.2857 4.12529 23.4355 4.27507Z" fill="#616161" stroke="#616161" stroke-width="0.3"/>
<path d="M23.4355 11.3322C23.5853 11.482 23.7884 11.5661 24.0002 11.5661C24.212 11.5661 24.4152 11.482 24.565 11.3322C24.7147 11.1824 24.7989 10.9793 24.7989 10.7675V9.00314C24.7989 8.79133 24.7147 8.58819 24.565 8.43841C24.4152 8.28864 24.212 8.20449 24.0002 8.20449C23.7884 8.20449 23.5853 8.28864 23.4355 8.43841C23.2857 8.58819 23.2016 8.79133 23.2016 9.00314V10.7675C23.2016 10.9793 23.2857 11.1824 23.4355 11.3322Z" fill="#616161" stroke="#616161" stroke-width="0.3"/>
<path d="M23.4355 18.3898C23.5853 18.5396 23.7884 18.6237 24.0002 18.6237C24.212 18.6237 24.4152 18.5396 24.565 18.3898C24.7147 18.24 24.7989 18.0369 24.7989 17.8251V16.0608C24.7989 15.8489 24.7147 15.6458 24.565 15.496C24.4152 15.3463 24.212 15.2621 24.0002 15.2621C23.7884 15.2621 23.5853 15.3463 23.4355 15.496C23.2857 15.6458 23.2016 15.8489 23.2016 16.0608V17.8251C23.2016 18.0369 23.2857 18.24 23.4355 18.3898Z" fill="#616161" stroke="#616161" stroke-width="0.3"/>
<path d="M23.4355 25.4469C23.5853 25.5967 23.7884 25.6809 24.0002 25.6809C24.212 25.6809 24.4152 25.5967 24.565 25.4469C24.7147 25.2972 24.7989 25.094 24.7989 24.8822V23.1179C24.7989 22.9061 24.7147 22.7029 24.565 22.5532C24.4152 22.4034 24.212 22.3192 24.0002 22.3192C23.7884 22.3192 23.5853 22.4034 23.4355 22.5532C23.2857 22.7029 23.2016 22.9061 23.2016 23.1179V24.8822C23.2016 25.094 23.2857 25.2972 23.4355 25.4469Z" fill="#616161" stroke="#616161" stroke-width="0.3"/>
<path d="M23.4355 32.5041C23.5853 32.6538 23.7884 32.738 24.0002 32.738C24.212 32.738 24.4152 32.6538 24.565 32.5041C24.7147 32.3543 24.7989 32.1511 24.7989 31.9393V30.175C24.7989 29.9632 24.7147 29.7601 24.565 29.6103C24.4152 29.4605 24.212 29.3764 24.0002 29.3764C23.7884 29.3764 23.5853 29.4605 23.4355 29.6103C23.2857 29.7601 23.2016 29.9632 23.2016 30.175V31.9393C23.2016 32.1511 23.2857 32.3543 23.4355 32.5041Z" fill="#616161" stroke="#616161" stroke-width="0.3"/>
<path d="M23.4355 39.5617C23.5853 39.7115 23.7884 39.7956 24.0002 39.7956C24.212 39.7956 24.4152 39.7115 24.565 39.5617C24.7147 39.4119 24.7989 39.2088 24.7989 38.9969V37.2326C24.7989 37.0208 24.7147 36.8177 24.565 36.6679C24.4152 36.5181 24.212 36.434 24.0002 36.434C23.7884 36.434 23.5853 36.5181 23.4355 36.6679C23.2857 36.8177 23.2016 37.0208 23.2016 37.2326V38.9969C23.2016 39.2088 23.2857 39.4119 23.4355 39.5617Z" fill="#616161" stroke="#616161" stroke-width="0.3"/>
<path d="M23.4355 46.6188C23.5853 46.7686 23.7884 46.8527 24.0002 46.8527C24.212 46.8527 24.4152 46.7686 24.565 46.6188C24.7147 46.469 24.7989 46.2659 24.7989 46.0541V44.2898C24.7989 44.0779 24.7147 43.8748 24.565 43.725C24.4152 43.5753 24.212 43.4911 24.0002 43.4911C23.7884 43.4911 23.5853 43.5753 23.4355 43.725C23.2857 43.8748 23.2016 44.0779 23.2016 44.2898V46.0541C23.2016 46.2659 23.2857 46.469 23.4355 46.6188Z" fill="#616161" stroke="#616161" stroke-width="0.3"/>
</svg>
