<svg width="16" height="16" viewBox="0 0 16 16" fill="none" xmlns="http://www.w3.org/2000/svg">
<path d="M7.99935 13.3337C6.52157 13.3337 5.26324 12.8142 4.22435 11.7753C3.18546 10.7364 2.66602 9.4781 2.66602 8.00033C2.66602 6.52255 3.18546 5.26421 4.22435 4.22533C5.26324 3.18644 6.52157 2.66699 7.99935 2.66699C8.94379 2.66699 9.77157 2.85866 10.4827 3.24199C11.1938 3.62533 11.8105 4.15033 12.3327 4.81699V2.66699H13.3327V6.90033H9.09935V5.90033H11.8993C11.4771 5.23366 10.9382 4.69477 10.2827 4.28366C9.62713 3.87255 8.86602 3.66699 7.99935 3.66699C6.78824 3.66699 5.76324 4.08644 4.92435 4.92533C4.08546 5.76421 3.66602 6.78921 3.66602 8.00033C3.66602 9.21144 4.08546 10.2364 4.92435 11.0753C5.76324 11.9142 6.78824 12.3337 7.99935 12.3337C8.92157 12.3337 9.76602 12.0698 10.5327 11.542C11.2993 11.0142 11.8327 10.317 12.1327 9.45033H13.166C12.8438 10.617 12.2049 11.5559 11.2493 12.267C10.2938 12.9781 9.21046 13.3337 7.99935 13.3337Z" fill="#757575"/>
</svg>
